<svg id="svg" version="1.1" xmlns="http://www.w3.org/2000/svg" xmlns:xlink="http://www.w3.org/1999/xlink" width="400" height="44.34706397896582" viewBox="0, 0, 400,44.34706397896582"><g id="svgg"><path id="path0" d="M151.583 0.317 C 148.580 1.199,146.405 3.582,145.545 6.933 C 145.036 8.917,145.099 35.517,145.617 37.459 C 146.787 41.842,149.673 44.103,154.333 44.286 C 159.683 44.496,163.119 41.995,164.279 37.048 C 164.733 35.110,164.747 9.317,164.294 7.287 C 163.470 3.589,160.952 0.879,157.700 0.188 C 156.317 -0.106,152.770 -0.031,151.583 0.317 M175.083 0.113 C 171.079 1.010,168.711 3.948,168.158 8.702 C 168.038 9.733,168.000 14.562,168.044 23.167 C 168.110 35.889,168.151 36.881,168.661 38.083 C 168.739 38.267,168.922 38.737,169.068 39.128 C 171.462 45.546,181.981 46.333,185.490 40.356 C 186.979 37.821,187.202 35.935,187.134 26.500 L 187.083 19.583 182.667 19.583 L 178.250 19.583 178.205 22.708 L 178.159 25.833 179.580 25.833 L 181.000 25.833 181.000 30.386 C 181.000 35.610,180.891 36.289,179.912 37.149 C 178.471 38.414,175.903 38.019,175.083 36.406 C 174.578 35.412,174.560 8.800,175.063 7.786 C 175.876 6.150,178.638 5.786,180.046 7.129 C 180.810 7.859,181.000 8.865,181.000 12.197 L 181.000 15.167 184.083 15.167 L 187.167 15.167 187.167 12.743 C 187.167 5.085,185.281 1.476,180.634 0.239 C 179.798 0.017,175.908 -0.071,175.083 0.113 M387.750 0.113 C 384.141 0.922,381.690 3.543,380.920 7.417 C 380.503 9.511,380.619 36.118,381.051 37.571 C 382.581 42.718,386.988 45.196,392.761 44.155 C 396.235 43.529,399.025 40.567,399.760 36.724 C 400.110 34.897,400.109 9.126,399.760 7.477 C 398.966 3.733,396.638 1.094,393.393 0.262 C 392.425 0.014,388.638 -0.086,387.750 0.113 M190.944 0.444 C 190.754 0.635,190.815 33.623,191.010 35.524 C 191.589 41.175,194.506 44.071,199.833 44.284 C 204.830 44.484,207.835 42.563,209.305 38.231 C 209.957 36.308,210.000 35.025,210.000 17.379 L 210.000 0.333 206.921 0.333 L 203.842 0.333 203.796 17.958 L 203.750 35.583 203.308 36.417 C 202.173 38.555,198.866 38.527,197.803 36.369 L 197.417 35.583 197.373 17.958 L 197.329 0.333 194.192 0.333 C 192.467 0.333,191.006 0.383,190.944 0.444 M214.167 22.083 L 214.167 43.833 217.417 43.833 L 220.667 43.833 220.667 22.083 L 220.667 0.333 217.417 0.333 L 214.167 0.333 214.167 22.083 M225.167 22.083 L 225.167 43.833 233.667 43.833 L 242.167 43.833 242.167 40.667 L 242.167 37.500 236.917 37.500 L 231.667 37.500 231.667 18.917 L 231.667 0.333 228.417 0.333 L 225.167 0.333 225.167 22.083 M244.793 22.083 L 244.750 43.833 248.042 43.833 L 251.333 43.833 251.333 34.583 L 251.333 25.333 254.833 25.333 L 258.333 25.333 258.333 34.583 L 258.333 43.833 261.667 43.833 L 265.000 43.833 265.000 22.083 L 265.000 0.333 261.667 0.333 L 258.333 0.333 258.333 9.667 L 258.333 19.000 254.833 19.000 L 251.333 19.000 251.333 9.667 L 251.333 0.333 248.085 0.333 L 244.836 0.333 244.793 22.083 M269.500 22.083 L 269.500 43.833 278.250 43.833 L 287.000 43.833 287.000 40.667 L 287.000 37.500 281.500 37.500 L 276.000 37.500 276.000 31.250 L 276.000 25.000 280.333 25.000 L 284.667 25.000 284.667 21.833 L 284.667 18.667 280.333 18.667 L 276.000 18.667 276.000 12.667 L 276.000 6.667 281.500 6.667 L 287.000 6.667 287.000 3.500 L 287.000 0.333 278.250 0.333 L 269.500 0.333 269.500 22.083 M290.833 22.083 L 290.833 43.833 294.083 43.833 L 297.333 43.833 297.333 34.978 L 297.333 26.123 299.042 26.201 C 303.155 26.389,303.368 26.839,303.515 35.667 C 303.597 40.642,303.682 42.433,303.861 43.000 L 304.098 43.750 307.382 43.795 C 309.189 43.820,310.666 43.783,310.665 43.712 C 310.664 43.641,310.543 43.171,310.397 42.667 C 310.186 41.938,310.105 40.385,310.001 35.083 C 309.923 31.119,309.793 28.125,309.681 27.697 C 309.163 25.713,307.969 23.905,306.611 23.048 L 305.969 22.643 306.610 22.220 C 308.882 20.717,309.796 18.261,309.948 13.247 C 310.280 2.310,308.118 0.338,295.792 0.335 L 290.833 0.333 290.833 22.083 M314.114 0.442 C 314.051 0.504,314.000 10.293,314.000 22.194 L 314.000 43.833 316.832 43.833 L 319.665 43.833 319.707 29.150 L 319.750 14.467 320.471 19.192 C 322.220 30.660,322.515 32.562,322.916 35.000 C 323.150 36.421,323.546 38.971,323.796 40.667 L 324.250 43.750 327.375 43.795 C 329.094 43.820,330.503 43.820,330.506 43.795 C 330.510 43.770,330.691 42.475,330.909 40.917 C 331.128 39.358,331.688 35.346,332.153 32.000 C 332.619 28.654,333.044 25.656,333.099 25.337 C 333.154 25.018,333.522 22.430,333.917 19.587 L 334.635 14.417 334.651 29.125 L 334.667 43.833 337.834 43.833 L 341.001 43.833 340.959 22.125 L 340.917 0.417 336.418 0.417 L 331.919 0.417 331.635 2.417 C 331.478 3.517,330.975 7.079,330.516 10.333 C 328.340 25.766,327.998 28.168,327.809 29.333 L 327.606 30.583 326.992 26.500 C 326.655 24.254,325.953 19.604,325.434 16.167 C 324.914 12.729,324.170 7.779,323.780 5.167 L 323.071 0.417 318.649 0.372 C 316.217 0.348,314.176 0.379,314.114 0.442 M345.333 22.080 L 345.333 43.833 348.667 43.833 L 352.001 43.833 351.959 22.125 L 351.917 0.417 348.625 0.371 L 345.333 0.326 345.333 22.080 M356.333 22.083 L 356.333 43.833 359.250 43.833 L 362.167 43.833 362.180 28.542 L 362.193 13.250 362.912 16.083 C 363.307 17.642,364.396 21.917,365.330 25.583 C 366.723 31.049,368.141 36.637,368.588 38.417 C 368.634 38.600,368.956 39.875,369.304 41.250 L 369.937 43.750 373.302 43.795 L 376.667 43.840 376.667 22.087 L 376.667 0.333 373.751 0.333 L 370.835 0.333 370.793 12.875 L 370.750 25.417 369.707 21.250 C 369.133 18.958,367.908 14.121,366.985 10.500 C 366.062 6.879,365.111 3.110,364.871 2.125 L 364.435 0.333 360.384 0.333 L 356.333 0.333 356.333 22.083 M156.504 6.669 C 157.296 7.073,157.916 8.135,157.755 8.811 C 157.649 9.253,154.684 18.380,152.739 24.250 L 151.690 27.417 151.678 18.550 C 151.666 9.277,151.718 8.472,152.391 7.464 C 153.141 6.341,155.114 5.960,156.504 6.669 M391.721 6.561 C 392.512 6.891,393.115 7.700,393.325 8.711 C 393.714 10.585,393.478 35.450,393.063 36.348 C 391.933 38.792,388.139 38.458,387.357 35.846 C 386.985 34.604,387.098 9.019,387.480 8.139 C 388.171 6.545,390.029 5.854,391.721 6.561 M301.218 6.845 C 303.115 7.328,303.417 8.185,303.417 13.083 C 303.417 19.049,302.911 19.833,299.063 19.833 L 297.333 19.833 297.333 13.250 L 297.333 6.667 298.926 6.667 C 299.802 6.667,300.834 6.747,301.218 6.845 M157.747 36.009 C 156.932 38.464,153.272 38.732,152.184 36.417 L 151.814 35.628 153.012 31.939 C 153.671 29.910,154.712 26.712,155.325 24.833 C 155.939 22.954,156.773 20.391,157.179 19.137 L 157.917 16.858 157.960 26.048 C 157.997 33.946,157.967 35.347,157.747 36.009 " stroke="none" fill="#fc8404" fill-rule="evenodd"></path><path id="path1" d="M6.363 0.253 C 3.478 1.053,1.327 3.366,0.387 6.681 C -0.076 8.312,-0.081 35.839,0.381 37.465 C 1.768 42.346,4.812 44.485,10.083 44.285 C 13.791 44.144,16.087 42.880,17.628 40.132 C 18.875 37.909,18.893 37.747,18.959 28.122 L 19.019 19.495 14.551 19.539 L 10.083 19.583 10.038 22.708 L 9.993 25.833 11.510 25.833 L 13.027 25.833 12.972 30.625 L 12.917 35.417 12.417 36.333 C 11.241 38.489,8.109 38.436,7.000 36.241 L 6.583 35.417 6.583 22.083 L 6.583 8.750 7.000 7.917 C 8.073 5.770,11.248 5.730,12.415 7.849 C 12.909 8.746,12.911 8.764,12.973 11.958 L 13.035 15.167 16.035 15.167 L 19.035 15.167 18.954 11.292 C 18.817 4.719,17.335 1.892,13.247 0.404 C 12.110 -0.010,7.665 -0.107,6.363 0.253 M23.000 22.083 L 23.000 43.833 26.250 43.833 L 29.500 43.833 29.500 22.083 L 29.500 0.333 26.250 0.333 L 23.000 0.333 23.000 22.083 M32.167 3.500 L 32.167 6.667 35.500 6.667 L 38.833 6.667 38.833 25.250 L 38.833 43.833 42.083 43.833 L 45.333 43.833 45.333 25.250 L 45.333 6.667 48.750 6.667 L 52.167 6.667 52.167 3.500 L 52.167 0.333 42.167 0.333 L 32.167 0.333 32.167 3.500 M54.667 22.083 L 54.667 43.833 57.917 43.833 L 61.167 43.833 61.167 34.583 L 61.167 25.333 64.667 25.333 L 68.167 25.333 68.167 34.583 L 68.167 43.833 71.500 43.833 L 74.833 43.833 74.833 22.083 L 74.833 0.333 71.500 0.333 L 68.167 0.333 68.167 9.667 L 68.167 19.000 64.667 19.000 L 61.167 19.000 61.167 9.667 L 61.167 0.333 57.917 0.333 L 54.667 0.333 54.667 22.083 M79.207 18.542 L 79.257 36.750 79.640 38.000 C 80.958 42.293,83.894 44.333,88.754 44.333 C 93.497 44.333,96.393 42.191,97.797 37.641 C 98.044 36.841,98.077 34.898,98.124 18.542 L 98.177 0.333 95.091 0.333 L 92.006 0.333 91.961 18.042 L 91.917 35.750 91.500 36.491 C 90.449 38.362,87.325 38.488,86.283 36.703 C 85.500 35.363,85.504 35.462,85.502 17.375 L 85.500 0.333 82.328 0.333 L 79.157 0.333 79.207 18.542 M102.333 22.078 L 102.333 43.855 108.792 43.788 C 114.786 43.727,115.316 43.698,116.167 43.383 C 120.899 41.628,122.167 39.153,122.167 31.667 C 122.167 25.227,121.094 22.384,118.123 20.945 L 117.622 20.702 118.002 20.499 C 122.283 18.208,123.072 6.855,119.230 2.827 C 117.258 0.760,115.963 0.467,108.375 0.375 L 102.333 0.302 102.333 22.078 M113.333 6.989 C 114.759 7.738,115.079 8.705,115.079 12.250 C 115.079 16.948,114.268 18.000,110.646 18.000 L 109.000 18.000 109.000 12.313 L 109.000 6.626 110.958 6.698 C 112.114 6.741,113.087 6.860,113.333 6.989 M125.833 16.917 L 125.833 20.333 129.000 20.333 L 132.167 20.333 132.167 16.917 L 132.167 13.500 129.000 13.500 L 125.833 13.500 125.833 16.917 M113.843 24.848 C 115.443 25.732,115.711 26.767,115.637 31.791 C 115.559 37.088,115.348 37.364,111.292 37.471 L 109.000 37.532 109.000 30.910 L 109.000 24.288 111.058 24.368 C 112.830 24.436,113.217 24.503,113.843 24.848 M125.833 40.500 L 125.833 43.833 129.000 43.833 L 132.167 43.833 132.167 40.500 L 132.167 37.167 129.000 37.167 L 125.833 37.167 125.833 40.500 " stroke="none" fill="#4b4b4b" fill-rule="evenodd"></path><path id="path2" d="" stroke="none" fill="#1006428" fill-rule="evenodd"></path><path id="path3" d="" stroke="none" fill="#1006428" fill-rule="evenodd"></path><path id="path4" d="" stroke="none" fill="#1006428" fill-rule="evenodd"></path></g></svg>